<svg xmlns="http://www.w3.org/2000/svg" xmlns:xlink="http://www.w3.org/1999/xlink" viewBox="70 40 230 240"><defs><linearGradient id="linear-gradient" x1="178.19" y1="205.2" x2="219.92" y2="83.9" gradientUnits="userSpaceOnUse"><stop offset="0" stop-color="#01aeca"/><stop offset="1" stop-color="#125ff9"/></linearGradient><linearGradient id="linear-gradient-2" x1="148.26" y1="194.9" x2="189.99" y2="73.61" xlink:href="#linear-gradient"/></defs><path fill="#1e293b" d="M193.2,272.37A116.24,116.24,0,1,1,280.94,79.66a11.25,11.25,0,1,1-17,14.8,93.67,93.67,0,1,0-32.49,147.2,11.26,11.26,0,0,1,9.16,20.57A116.62,116.62,0,0,1,193.2,272.37Z"/><path fill="url(#linear-gradient)" d="M194.9,218.16a63.12,63.12,0,0,1-7-.39,11.26,11.26,0,1,1,2.55-22.37,41.56,41.56,0,0,0,4.47.25,39,39,0,1,0-38.45-32.33,11.26,11.26,0,1,1-22.19,3.82,61.55,61.55,0,1,1,60.64,51Z"/><circle fill="#1e293b" cx="194.9" cy="156.62" r="10.2"/><path fill="url(#linear-gradient-2)" d="M156.39,218.17a11.27,11.27,0,0,1-10.87-8.35l-10.74-40.08a11.26,11.26,0,1,1,21.75-5.83L167.27,204a11.28,11.28,0,0,1-10.88,14.18Z"/></svg>